# xmcd
#
# Track frame offsets:
# 150
# 13974
# 28252
# 42896
# 59735
# 70914
# 83898
# 100454
# 116828
# 130516
# 146038
# 157338
# 171771
# 187856
#
# Disc length: 2691 seconds
#
#
# Revision: 2
# Processed by: cddbd v1.5.1PL0 Copyright (c) Steve Scherf et al.
# Submitted via: FreeRIP 2.92 
#
DISCID=ce0a810e
DTITLE=Saudades do Sertão 3 - Saudades do Sertão
DYEAR=2004
DGENRE=Country
TTITLE0=Tonico and Tinoco - Chico Mineiro
TTITLE1=Peão Carreiro and Zé Paulo - Berrante da Saudade
TTITLE2=Suzamar - Pombinha Branca
TTITLE3=Donizetti - Serenata Suburbana
TTITLE4=Mensageiro and Mexicano - Espinho na cama
TTITLE5=Teodoro and Sampaio - Se a casa cair
TTITLE6=Abel and Caim - Meu fraco é muilher
TTITLE7=Lourenço and Lourival - Mágoa de Boiadeiro
TTITLE8=As Marcianas - Colcha de retalhos
TTITLE9=Ataíde and Alexandre - Ô de casa, Ô de fora
TTITLE10=Pena Branca and Xavantinho - Calix Bento
TTITLE11=Zico and Zeca - João Ninguém
TTITLE12=Alan and Aladim - Dói cotovelo
TTITLE13=Mário Zam - Polca n. 01
EXTD=
EXTT0=
EXTT1=
EXTT2=
EXTT3=
EXTT4=
EXTT5=
EXTT6=
EXTT7=
EXTT8=
EXTT9=
EXTT10=
EXTT11=
EXTT12=
EXTT13=
PLAYORDER=
